<?xml version="1.0" standalone="no"?>
<!DOCTYPE svg PUBLIC "-//W3C//DTD SVG 20010904//EN"
 "http://www.w3.org/TR/2001/REC-SVG-20010904/DTD/svg10.dtd">
<svg version="1.0" xmlns="http://www.w3.org/2000/svg"
 width="1024.000000pt" height="683.000000pt" viewBox="0 0 1024.000000 683.000000"
 preserveAspectRatio="xMidYMid meet">

<g transform="translate(0.000000,683.000000) scale(0.100000,-0.100000)"
fill="#000000" stroke="none">
<path d="M5037 4529 c-176 -183 -265 -452 -271 -819 -3 -176 2 -290 12 -290 4
0 74 102 156 226 82 124 152 221 157 217 4 -4 92 -136 195 -293 103 -157 298
-451 432 -655 135 -203 283 -429 331 -502 l86 -132 100 -1 c55 0 184 -3 288
-7 134 -4 187 -3 187 5 0 6 -326 501 -723 1099 -533 801 -737 1101 -775 1136
-28 26 -52 47 -54 47 -2 0 -19 4 -38 10 -33 9 -36 8 -83 -41z"/>
<path d="M4483 3831 c-64 -95 -72 -113 -79 -169 l-7 -62 34 6 c80 13 76 9 83
76 4 35 16 105 27 157 10 52 18 95 17 97 -2 1 -35 -46 -75 -105z"/>
<path d="M4409 3433 l-36 -4 -6 -97 c-4 -53 -7 -152 -7 -220 l0 -122 43 6 c23
4 53 10 66 14 l25 6 -2 210 -2 209 -23 1 c-12 1 -38 -1 -58 -3z"/>
<path d="M3731 2699 c-150 -226 -270 -413 -268 -415 2 -3 116 -5 253 -6 l249
0 7 261 c3 143 14 329 23 412 9 83 14 153 12 155 -2 2 -126 -181 -276 -407z"/>
</g>
</svg>
